# xmcd CD database file
#
# Track frame offsets:
#	150
#	29092
#	61672
#	90955
#	120830
#	160730
#	176842
#	202025
#	227305
#	245645
#
# Disc length: 3692 seconds
#
# Revision: 0
# Processed by: cddbd v1.5.1PL0 Copyright (c) Steve Scherf et al.
# Submitted via: CDex 1.51
#
DISCID=750e6a0a
DTITLE=JJ CALE - Sausalito Blues 31 12 1975
DYEAR=1975
DGENRE=Blues
TTITLE0=Cajun Moon
TTITLE1=Calle mE Breeze
TTITLE2=Lies
TTITLE3=Clyde
TTITLE4=After Midnight
TTITLE5=Call The Doctor
TTITLE6=Magnolia
TTITLE7=Crazy Mama
TTITLE8=The Sensitive Kind
TTITLE9=Cocaine
EXTD=YEAR: 1975
EXTT0=
EXTT1=
EXTT2=
EXTT3=
EXTT4=
EXTT5=
EXTT6=
EXTT7=
EXTT8=
EXTT9=
PLAYORDER=
